<mxfile host="app.diagrams.net" modified="2023-07-20T10:11:10.247Z" agent="Mozilla/5.0 (Windows NT 10.0; Win64; x64) AppleWebKit/537.36 (KHTML, like Gecko) Chrome/114.0.0.0 Safari/537.36" etag="HxMUT_PZv7YLqje6j4es" version="21.6.3" type="device">
  <diagram name="Page-1" id="JSn4vxHjPzbfBLrG_7Ib">
    <mxGraphModel dx="989" dy="527" grid="1" gridSize="10" guides="1" tooltips="1" connect="1" arrows="1" fold="1" page="1" pageScale="1" pageWidth="827" pageHeight="1169" math="0" shadow="0">
      <root>
        <mxCell id="0" />
        <mxCell id="1" parent="0" />
        <mxCell id="K5gx5vuR-Sjfsr4vT_4R-1" value="" style="rounded=0;whiteSpace=wrap;html=1;labelBackgroundColor=none;strokeColor=#088CFF;fontColor=#088CFF;" parent="1" vertex="1">
          <mxGeometry x="120" y="100" width="150" height="100" as="geometry" />
        </mxCell>
        <mxCell id="K5gx5vuR-Sjfsr4vT_4R-3" value="" style="endArrow=none;html=1;rounded=0;fontColor=#088CFF;entryX=-0.001;entryY=0.59;entryDx=0;entryDy=0;entryPerimeter=0;labelBackgroundColor=none;strokeColor=#088CFF;" parent="1" target="K5gx5vuR-Sjfsr4vT_4R-18" edge="1">
          <mxGeometry width="50" height="50" relative="1" as="geometry">
            <mxPoint x="270" y="160" as="sourcePoint" />
            <mxPoint x="300" y="180" as="targetPoint" />
          </mxGeometry>
        </mxCell>
        <mxCell id="K5gx5vuR-Sjfsr4vT_4R-8" value="" style="endArrow=none;html=1;rounded=0;entryX=0.5;entryY=1;entryDx=0;entryDy=0;fontColor=#088CFF;labelBackgroundColor=none;strokeColor=#088CFF;" parent="1" source="K5gx5vuR-Sjfsr4vT_4R-9" target="K5gx5vuR-Sjfsr4vT_4R-1" edge="1">
          <mxGeometry width="50" height="50" relative="1" as="geometry">
            <mxPoint x="195" y="260" as="sourcePoint" />
            <mxPoint x="200" y="240" as="targetPoint" />
          </mxGeometry>
        </mxCell>
        <mxCell id="K5gx5vuR-Sjfsr4vT_4R-12" value="" style="rounded=0;whiteSpace=wrap;html=1;labelBackgroundColor=none;strokeColor=#088CFF;fontColor=#088CFF;" parent="1" vertex="1">
          <mxGeometry x="132.5" y="342.5" width="125" height="117.5" as="geometry" />
        </mxCell>
        <mxCell id="K5gx5vuR-Sjfsr4vT_4R-16" value="" style="endArrow=classic;html=1;rounded=0;exitX=0.5;exitY=1;exitDx=0;exitDy=0;fontColor=#088CFF;labelBackgroundColor=none;strokeColor=#088CFF;" parent="1" source="K5gx5vuR-Sjfsr4vT_4R-9" edge="1">
          <mxGeometry width="50" height="50" relative="1" as="geometry">
            <mxPoint x="190" y="310" as="sourcePoint" />
            <mxPoint x="195" y="340" as="targetPoint" />
          </mxGeometry>
        </mxCell>
        <mxCell id="K5gx5vuR-Sjfsr4vT_4R-18" value="" style="rounded=1;whiteSpace=wrap;html=1;arcSize=50;labelBackgroundColor=none;strokeColor=#088CFF;fontColor=#088CFF;" parent="1" vertex="1">
          <mxGeometry x="320" y="100" width="250" height="100" as="geometry" />
        </mxCell>
        <mxCell id="K5gx5vuR-Sjfsr4vT_4R-19" value="" style="endArrow=none;html=1;rounded=0;fontColor=#088CFF;labelBackgroundColor=none;strokeColor=#088CFF;" parent="1" edge="1">
          <mxGeometry width="50" height="50" relative="1" as="geometry">
            <mxPoint x="570" y="160" as="sourcePoint" />
            <mxPoint x="630" y="160" as="targetPoint" />
          </mxGeometry>
        </mxCell>
        <mxCell id="K5gx5vuR-Sjfsr4vT_4R-21" value="" style="rounded=0;whiteSpace=wrap;html=1;labelBackgroundColor=none;strokeColor=#088CFF;fontColor=#088CFF;" parent="1" vertex="1">
          <mxGeometry x="630" y="100" width="130" height="230" as="geometry" />
        </mxCell>
        <mxCell id="K5gx5vuR-Sjfsr4vT_4R-22" value="" style="endArrow=none;html=1;rounded=0;entryX=0.5;entryY=1;entryDx=0;entryDy=0;fontColor=#088CFF;labelBackgroundColor=none;strokeColor=#088CFF;" parent="1" target="K5gx5vuR-Sjfsr4vT_4R-21" edge="1">
          <mxGeometry width="50" height="50" relative="1" as="geometry">
            <mxPoint x="695" y="380" as="sourcePoint" />
            <mxPoint x="720" y="350" as="targetPoint" />
          </mxGeometry>
        </mxCell>
        <mxCell id="K5gx5vuR-Sjfsr4vT_4R-24" value="" style="ellipse;whiteSpace=wrap;html=1;aspect=fixed;labelBackgroundColor=none;strokeColor=#088CFF;fontColor=#088CFF;" parent="1" vertex="1">
          <mxGeometry x="672.5" y="380" width="45" height="45" as="geometry" />
        </mxCell>
        <mxCell id="K5gx5vuR-Sjfsr4vT_4R-25" value="" style="endArrow=classic;html=1;rounded=0;exitX=0;exitY=0.5;exitDx=0;exitDy=0;fontColor=#088CFF;labelBackgroundColor=none;strokeColor=#088CFF;" parent="1" source="K5gx5vuR-Sjfsr4vT_4R-24" edge="1">
          <mxGeometry width="50" height="50" relative="1" as="geometry">
            <mxPoint x="470" y="440" as="sourcePoint" />
            <mxPoint x="600" y="403" as="targetPoint" />
          </mxGeometry>
        </mxCell>
        <mxCell id="K5gx5vuR-Sjfsr4vT_4R-26" value="" style="rounded=0;whiteSpace=wrap;html=1;labelBackgroundColor=none;strokeColor=#088CFF;fontColor=#088CFF;" parent="1" vertex="1">
          <mxGeometry x="460" y="362.5" width="140" height="107.5" as="geometry" />
        </mxCell>
        <mxCell id="K5gx5vuR-Sjfsr4vT_4R-27" value="" style="endArrow=none;html=1;rounded=0;exitX=0;exitY=0.25;exitDx=0;exitDy=0;entryX=1;entryY=0.25;entryDx=0;entryDy=0;fontColor=#088CFF;labelBackgroundColor=none;strokeColor=#088CFF;" parent="1" source="K5gx5vuR-Sjfsr4vT_4R-1" target="K5gx5vuR-Sjfsr4vT_4R-1" edge="1">
          <mxGeometry width="50" height="50" relative="1" as="geometry">
            <mxPoint x="160" y="170" as="sourcePoint" />
            <mxPoint x="210" y="120" as="targetPoint" />
          </mxGeometry>
        </mxCell>
        <mxCell id="K5gx5vuR-Sjfsr4vT_4R-28" value="" style="endArrow=none;html=1;rounded=0;exitX=0;exitY=0.25;exitDx=0;exitDy=0;fontColor=#088CFF;labelBackgroundColor=none;strokeColor=#088CFF;" parent="1" edge="1">
          <mxGeometry width="50" height="50" relative="1" as="geometry">
            <mxPoint x="630" y="140.08" as="sourcePoint" />
            <mxPoint x="760" y="140" as="targetPoint" />
          </mxGeometry>
        </mxCell>
        <mxCell id="K5gx5vuR-Sjfsr4vT_4R-29" value="" style="endArrow=none;html=1;rounded=0;exitX=0;exitY=0.25;exitDx=0;exitDy=0;entryX=1;entryY=0.25;entryDx=0;entryDy=0;fontColor=#088CFF;labelBackgroundColor=none;strokeColor=#088CFF;" parent="1" edge="1">
          <mxGeometry width="50" height="50" relative="1" as="geometry">
            <mxPoint x="132.5" y="372.4999999999999" as="sourcePoint" />
            <mxPoint x="257.5" y="372.4999999999999" as="targetPoint" />
          </mxGeometry>
        </mxCell>
        <mxCell id="K5gx5vuR-Sjfsr4vT_4R-33" value="" style="endArrow=none;html=1;rounded=0;entryX=1;entryY=0.25;entryDx=0;entryDy=0;fontColor=#088CFF;labelBackgroundColor=none;strokeColor=#088CFF;" parent="1" edge="1">
          <mxGeometry width="50" height="50" relative="1" as="geometry">
            <mxPoint x="460" y="392.5" as="sourcePoint" />
            <mxPoint x="600" y="392.5" as="targetPoint" />
          </mxGeometry>
        </mxCell>
        <mxCell id="K5gx5vuR-Sjfsr4vT_4R-34" value="" style="endArrow=none;html=1;rounded=0;exitX=0;exitY=0.25;exitDx=0;exitDy=0;entryX=0.996;entryY=0.4;entryDx=0;entryDy=0;entryPerimeter=0;fontColor=#088CFF;labelBackgroundColor=none;strokeColor=#088CFF;" parent="1" target="K5gx5vuR-Sjfsr4vT_4R-18" edge="1">
          <mxGeometry width="50" height="50" relative="1" as="geometry">
            <mxPoint x="320" y="140" as="sourcePoint" />
            <mxPoint x="560" y="140" as="targetPoint" />
          </mxGeometry>
        </mxCell>
        <mxCell id="K5gx5vuR-Sjfsr4vT_4R-44" value="ARTICLE" style="text;align=center;fillColor=none;html=1;verticalAlign=middle;whiteSpace=wrap;rounded=0;fontSize=23;labelBackgroundColor=none;strokeColor=#088CFF;fontColor=#088CFF;" parent="1" vertex="1">
          <mxGeometry x="630" y="100" width="130" height="40" as="geometry" />
        </mxCell>
        <mxCell id="K5gx5vuR-Sjfsr4vT_4R-49" value="nÂ°article" style="text;strokeColor=none;align=left;fillColor=none;html=1;verticalAlign=middle;whiteSpace=wrap;rounded=0;fontSize=23;fontStyle=4;labelBackgroundColor=none;fontColor=#088CFF;" parent="1" vertex="1">
          <mxGeometry x="635" y="140" width="120" height="40" as="geometry" />
        </mxCell>
        <mxCell id="K5gx5vuR-Sjfsr4vT_4R-50" value="nom" style="text;strokeColor=none;align=left;fillColor=none;html=1;verticalAlign=middle;whiteSpace=wrap;rounded=0;fontSize=23;fontStyle=0;labelBackgroundColor=none;fontColor=#088CFF;" parent="1" vertex="1">
          <mxGeometry x="635" y="170" width="120" height="40" as="geometry" />
        </mxCell>
        <mxCell id="K5gx5vuR-Sjfsr4vT_4R-53" value="description" style="text;strokeColor=none;align=left;fillColor=none;html=1;verticalAlign=middle;whiteSpace=wrap;rounded=0;fontSize=23;fontStyle=0;labelBackgroundColor=none;fontColor=#088CFF;" parent="1" vertex="1">
          <mxGeometry x="635" y="200" width="110" height="40" as="geometry" />
        </mxCell>
        <mxCell id="K5gx5vuR-Sjfsr4vT_4R-54" value="photo" style="text;strokeColor=none;align=left;fillColor=none;html=1;verticalAlign=middle;whiteSpace=wrap;rounded=0;fontSize=23;fontStyle=0;labelBackgroundColor=none;fontColor=#088CFF;" parent="1" vertex="1">
          <mxGeometry x="635" y="230" width="120" height="40" as="geometry" />
        </mxCell>
        <mxCell id="K5gx5vuR-Sjfsr4vT_4R-55" value="prix" style="text;strokeColor=none;align=left;fillColor=none;html=1;verticalAlign=middle;whiteSpace=wrap;rounded=0;fontSize=23;fontStyle=0;labelBackgroundColor=none;fontColor=#088CFF;" parent="1" vertex="1">
          <mxGeometry x="635" y="266.25" width="120" height="32.5" as="geometry" />
        </mxCell>
        <mxCell id="K5gx5vuR-Sjfsr4vT_4R-57" value="stock" style="text;strokeColor=none;align=left;fillColor=none;html=1;verticalAlign=middle;whiteSpace=wrap;rounded=0;fontSize=23;fontStyle=0;labelBackgroundColor=none;fontColor=#088CFF;" parent="1" vertex="1">
          <mxGeometry x="635" y="298.75" width="120" height="30" as="geometry" />
        </mxCell>
        <mxCell id="K5gx5vuR-Sjfsr4vT_4R-59" value="&lt;span style=&quot;font-family: Helvetica; font-size: 17px; font-style: normal; font-variant-ligatures: normal; font-variant-caps: normal; font-weight: 400; letter-spacing: normal; orphans: 2; text-align: center; text-indent: 0px; text-transform: none; widows: 2; word-spacing: 0px; -webkit-text-stroke-width: 0px; background-color: rgb(251, 251, 251); text-decoration-thickness: initial; text-decoration-style: initial; text-decoration-color: initial; float: none; display: inline !important;&quot;&gt;1,n&lt;/span&gt;" style="text;whiteSpace=wrap;html=1;fontSize=17;labelBackgroundColor=none;strokeColor=none;fontColor=#088CFF;" parent="1" vertex="1">
          <mxGeometry x="280" y="130" width="40" height="30" as="geometry" />
        </mxCell>
        <mxCell id="K5gx5vuR-Sjfsr4vT_4R-61" value="&lt;span style=&quot;font-family: Helvetica; font-size: 17px; font-style: normal; font-variant-ligatures: normal; font-variant-caps: normal; font-weight: 400; letter-spacing: normal; orphans: 2; text-align: center; text-indent: 0px; text-transform: none; widows: 2; word-spacing: 0px; -webkit-text-stroke-width: 0px; background-color: rgb(251, 251, 251); text-decoration-thickness: initial; text-decoration-style: initial; text-decoration-color: initial; float: none; display: inline !important;&quot;&gt;0,n&lt;/span&gt;" style="text;whiteSpace=wrap;html=1;fontSize=17;labelBackgroundColor=none;strokeColor=none;fontColor=#088CFF;" parent="1" vertex="1">
          <mxGeometry x="590" y="130" width="40" height="50" as="geometry" />
        </mxCell>
        <mxCell id="K5gx5vuR-Sjfsr4vT_4R-63" value="LIGNE_COMMANDE" style="text;strokeColor=none;align=center;fillColor=none;html=1;verticalAlign=middle;whiteSpace=wrap;rounded=0;fontSize=23;labelBackgroundColor=none;fontColor=#088CFF;" parent="1" vertex="1">
          <mxGeometry x="332.5" y="110" width="225" height="30" as="geometry" />
        </mxCell>
        <mxCell id="K5gx5vuR-Sjfsr4vT_4R-64" value="qtÃ©_commandÃ©e" style="text;strokeColor=none;align=center;fillColor=none;html=1;verticalAlign=middle;whiteSpace=wrap;rounded=0;fontSize=23;labelBackgroundColor=none;fontColor=#088CFF;" parent="1" vertex="1">
          <mxGeometry x="325" y="160" width="240" height="30" as="geometry" />
        </mxCell>
        <mxCell id="K5gx5vuR-Sjfsr4vT_4R-66" value="COMMANDE" style="text;strokeColor=none;align=center;fillColor=none;html=1;verticalAlign=middle;whiteSpace=wrap;rounded=0;fontSize=23;labelBackgroundColor=none;fontColor=#088CFF;" parent="1" vertex="1">
          <mxGeometry x="120" y="100" width="150" height="30" as="geometry" />
        </mxCell>
        <mxCell id="K5gx5vuR-Sjfsr4vT_4R-69" value="CLIENT" style="text;strokeColor=#088CFF;align=center;fillColor=none;html=1;verticalAlign=middle;whiteSpace=wrap;rounded=0;fontSize=23;labelBackgroundColor=none;fontColor=#088CFF;" parent="1" vertex="1">
          <mxGeometry x="132.5" y="342.5" width="125" height="30" as="geometry" />
        </mxCell>
        <mxCell id="K5gx5vuR-Sjfsr4vT_4R-71" value="CATEGORIE" style="text;strokeColor=none;align=center;fillColor=none;html=1;verticalAlign=middle;whiteSpace=wrap;rounded=0;fontSize=21;labelBackgroundColor=none;fontColor=#088CFF;" parent="1" vertex="1">
          <mxGeometry x="460" y="362.5" width="140" height="30" as="geometry" />
        </mxCell>
        <mxCell id="K5gx5vuR-Sjfsr4vT_4R-73" value="nÂ°article" style="text;strokeColor=none;align=left;fillColor=none;html=1;verticalAlign=middle;whiteSpace=wrap;rounded=0;fontSize=23;fontStyle=4;labelBackgroundColor=none;fontColor=#088CFF;" parent="1" vertex="1">
          <mxGeometry x="460" y="392.5" width="120" height="40" as="geometry" />
        </mxCell>
        <mxCell id="K5gx5vuR-Sjfsr4vT_4R-74" value="libellÃ©" style="text;strokeColor=none;align=left;fillColor=none;html=1;verticalAlign=middle;whiteSpace=wrap;rounded=0;fontSize=23;fontStyle=4;labelBackgroundColor=none;fontColor=#088CFF;" parent="1" vertex="1">
          <mxGeometry x="460" y="425" width="120" height="40" as="geometry" />
        </mxCell>
        <mxCell id="K5gx5vuR-Sjfsr4vT_4R-75" value="nÂ°commande" style="text;strokeColor=none;align=left;fillColor=none;html=1;verticalAlign=middle;whiteSpace=wrap;rounded=0;fontSize=19;fontStyle=0;labelBackgroundColor=none;fontColor=#088CFF;" parent="1" vertex="1">
          <mxGeometry x="120" y="130" width="120" height="30" as="geometry" />
        </mxCell>
        <mxCell id="K5gx5vuR-Sjfsr4vT_4R-76" value="date_paiement" style="text;strokeColor=none;align=left;fillColor=none;html=1;verticalAlign=middle;whiteSpace=wrap;rounded=0;fontSize=19;fontStyle=0;labelBackgroundColor=none;fontColor=#088CFF;" parent="1" vertex="1">
          <mxGeometry x="120" y="160" width="120" height="30" as="geometry" />
        </mxCell>
        <mxCell id="K5gx5vuR-Sjfsr4vT_4R-78" value="" style="endArrow=none;html=1;rounded=0;entryX=0.5;entryY=1;entryDx=0;entryDy=0;fontColor=#088CFF;labelBackgroundColor=none;strokeColor=#088CFF;" parent="1" target="K5gx5vuR-Sjfsr4vT_4R-9" edge="1">
          <mxGeometry width="50" height="50" relative="1" as="geometry">
            <mxPoint x="195" y="260" as="sourcePoint" />
            <mxPoint x="195" y="200" as="targetPoint" />
          </mxGeometry>
        </mxCell>
        <mxCell id="K5gx5vuR-Sjfsr4vT_4R-9" value="" style="ellipse;whiteSpace=wrap;html=1;aspect=fixed;labelBackgroundColor=none;strokeColor=#088CFF;fontColor=#088CFF;" parent="1" vertex="1">
          <mxGeometry x="172.5" y="240" width="45" height="45" as="geometry" />
        </mxCell>
        <mxCell id="K5gx5vuR-Sjfsr4vT_4R-82" value="nÂ°client" style="text;strokeColor=none;align=left;fillColor=none;html=1;verticalAlign=middle;whiteSpace=wrap;rounded=0;fontSize=19;fontStyle=0;labelBackgroundColor=none;fontColor=#088CFF;" parent="1" vertex="1">
          <mxGeometry x="132.5" y="372.5" width="120" height="30" as="geometry" />
        </mxCell>
        <mxCell id="K5gx5vuR-Sjfsr4vT_4R-84" value="nom" style="text;strokeColor=none;align=left;fillColor=none;html=1;verticalAlign=middle;whiteSpace=wrap;rounded=0;fontSize=19;fontStyle=0;labelBackgroundColor=none;fontColor=#088CFF;" parent="1" vertex="1">
          <mxGeometry x="132.5" y="397.5" width="120" height="30" as="geometry" />
        </mxCell>
        <mxCell id="K5gx5vuR-Sjfsr4vT_4R-85" value="adresse" style="text;strokeColor=none;align=left;fillColor=none;html=1;verticalAlign=middle;whiteSpace=wrap;rounded=0;fontSize=19;fontStyle=0;labelBackgroundColor=none;fontColor=#088CFF;" parent="1" vertex="1">
          <mxGeometry x="132.5" y="425" width="120" height="30" as="geometry" />
        </mxCell>
        <mxCell id="K5gx5vuR-Sjfsr4vT_4R-89" value="&lt;span style=&quot;font-family: Helvetica; font-size: 17px; font-style: normal; font-variant-ligatures: normal; font-variant-caps: normal; font-weight: 400; letter-spacing: normal; orphans: 2; text-align: center; text-indent: 0px; text-transform: none; widows: 2; word-spacing: 0px; -webkit-text-stroke-width: 0px; background-color: rgb(251, 251, 251); text-decoration-thickness: initial; text-decoration-style: initial; text-decoration-color: initial; float: none; display: inline !important;&quot;&gt;1,1&lt;/span&gt;" style="text;whiteSpace=wrap;html=1;fontSize=17;labelBackgroundColor=none;strokeColor=none;fontColor=#088CFF;" parent="1" vertex="1">
          <mxGeometry x="200" y="210" width="40" height="30" as="geometry" />
        </mxCell>
        <mxCell id="K5gx5vuR-Sjfsr4vT_4R-90" value="&lt;span style=&quot;font-family: Helvetica; font-size: 17px; font-style: normal; font-variant-ligatures: normal; font-variant-caps: normal; font-weight: 400; letter-spacing: normal; orphans: 2; text-align: center; text-indent: 0px; text-transform: none; widows: 2; word-spacing: 0px; -webkit-text-stroke-width: 0px; background-color: rgb(251, 251, 251); text-decoration-thickness: initial; text-decoration-style: initial; text-decoration-color: initial; float: none; display: inline !important;&quot;&gt;0,n&lt;/span&gt;" style="text;whiteSpace=wrap;html=1;fontSize=17;labelBackgroundColor=none;strokeColor=none;fontColor=#088CFF;" parent="1" vertex="1">
          <mxGeometry x="200" y="290" width="40" height="30" as="geometry" />
        </mxCell>
        <mxCell id="K5gx5vuR-Sjfsr4vT_4R-91" value="&lt;span style=&quot;font-family: Helvetica; font-size: 17px; font-style: normal; font-variant-ligatures: normal; font-variant-caps: normal; font-weight: 400; letter-spacing: normal; orphans: 2; text-align: center; text-indent: 0px; text-transform: none; widows: 2; word-spacing: 0px; -webkit-text-stroke-width: 0px; background-color: rgb(251, 251, 251); text-decoration-thickness: initial; text-decoration-style: initial; text-decoration-color: initial; float: none; display: inline !important;&quot;&gt;1,1&lt;/span&gt;" style="text;whiteSpace=wrap;html=1;fontSize=17;labelBackgroundColor=none;strokeColor=none;fontColor=#088CFF;" parent="1" vertex="1">
          <mxGeometry x="700" y="342.5" width="40" height="30" as="geometry" />
        </mxCell>
        <mxCell id="K5gx5vuR-Sjfsr4vT_4R-92" value="&lt;span style=&quot;font-family: Helvetica; font-size: 17px; font-style: normal; font-variant-ligatures: normal; font-variant-caps: normal; font-weight: 400; letter-spacing: normal; orphans: 2; text-align: center; text-indent: 0px; text-transform: none; widows: 2; word-spacing: 0px; -webkit-text-stroke-width: 0px; background-color: rgb(251, 251, 251); text-decoration-thickness: initial; text-decoration-style: initial; text-decoration-color: initial; float: none; display: inline !important;&quot;&gt;0,n&lt;/span&gt;" style="text;whiteSpace=wrap;html=1;fontSize=17;labelBackgroundColor=none;strokeColor=none;fontColor=#088CFF;" parent="1" vertex="1">
          <mxGeometry x="620" y="372.5" width="40" height="27.5" as="geometry" />
        </mxCell>
      </root>
    </mxGraphModel>
  </diagram>
</mxfile>
